<svg xmlns="http://www.w3.org/2000/svg" viewBox="0 0 100 100" width="100%" height="100%">
  <defs>
    <style>
      .top { fill: #1d9bf0; stroke: #1d9bf0; stroke-width: 3.2; stroke-linejoin: round; }
      .left { fill: #0c7abf; stroke: #0c7abf; stroke-width: 3.2; stroke-linejoin: round; }
      .right { fill: #06588f; stroke: #06588f; stroke-width: 3.2; stroke-linejoin: round; }
      .led { fill: #ffffff; }
      .led-pill { stroke: #ffffff; stroke-width: 3.6; stroke-linecap: round; }
    </style>
  </defs>
  <!-- Layer 3 (Bottom Slab) -->
  <g>
    <polygon class="top" points="50,56 86,70 50,84 14,70"/>
    <polygon class="left" points="14,70 50,84 50,95 14,81"/>
    <polygon class="right" points="50,84 86,70 86,81 50,95"/>
    <line class="led-pill" x1="22" y1="76" x2="33" y2="80.3"/>
    <circle class="led" cx="40" cy="83.3" r="2.2"/>
  </g>
  <!-- Layer 2 (Middle Slab) -->
  <g>
    <polygon class="top" points="50,31 86,45 50,59 14,45"/>
    <polygon class="left" points="14,45 50,59 50,70 14,56"/>
    <polygon class="right" points="50,59 86,45 86,56 50,70"/>
    <line class="led-pill" x1="22" y1="51" x2="33" y2="55.3"/>
    <circle class="led" cx="40" cy="58.3" r="2.2"/>
  </g>
  <!-- Layer 1 (Top Slab) -->
  <g>
    <polygon class="top" points="50,6 86,20 50,34 14,20"/>
    <polygon class="left" points="14,20 50,34 50,45 14,31"/>
    <polygon class="right" points="50,34 86,20 86,31 50,45"/>
    <line class="led-pill" x1="22" y1="26" x2="33" y2="30.3"/>
    <circle class="led" cx="40" cy="33.3" r="2.2"/>
  </g>
</svg>