<svg xmlns="http://www.w3.org/2000/svg" viewBox="0 0 24 24" width="24" height="24" aria-label="Protected account" role="img" fill="#ffffff">
  <path clip-rule="evenodd" d="M12 1.5c2.761 0 5 2.239 5 5v.745c.22.06.431.138.638.235 1.045.495 1.887 1.337 2.381 2.382.267.563.378 1.165.43 1.849.052.673.051 1.505.051 2.539 0 1.034 0 1.866-.05 2.54-.053.683-.164 1.285-.43 1.848-.495 1.045-1.337 1.887-2.382 2.381-.563.267-1.165.378-1.849.43-.673.052-1.505.051-2.539.051h-2.5c-1.034 0-1.866 0-2.54-.05-.683-.053-1.285-.164-1.848-.43-1.045-.495-1.887-1.337-2.382-2.382-.266-.563-.377-1.165-.43-1.849-.05-.673-.05-1.505-.05-2.539 0-1.034 0-1.866.05-2.54.053-.683.164-1.285.43-1.848.495-1.045 1.337-1.887 2.382-2.382.207-.097.419-.174.638-.235V6.5c0-2.761 2.239-5 5-5zM9.5 15h5v-2h-5v2zM12 3.5c-1.657 0-3 1.343-3 3v.515C9.508 7 10.088 7 10.75 7h2.5l1.405.006c.119.002.234.006.345.009V6.5c0-1.657-1.343-3-3-3z" fill-rule="evenodd" />
</svg>
